<svg width="153" height="166" viewBox="0 0 153 166" fill="none" xmlns="http://www.w3.org/2000/svg">
<path d="M47.0436 5.972C41.7427 8.30223 36.9738 11.4918 33.7367 14.8982C32.6656 16.0309 31.223 17.3179 30.4982 17.757C28.8448 18.8146 26.7263 21.072 25.3842 23.1191C24.7948 24.0326 23.2027 26.8225 21.8285 29.3189C19.1191 34.2709 17.8468 36.2119 16.2576 37.7681L15.2326 38.8029L16.0899 39.1403L16.9473 39.4777L16.5129 40.1465C15.9473 41.0518 15.2309 41.5156 14.5523 41.3911C14.0734 41.3081 13.8932 41.4792 13.4477 42.4257C13.1642 43.0704 12.9267 43.6172 12.9519 43.6908C12.9686 43.7399 13.2954 43.7653 13.7087 43.7337L14.4083 43.6867L13.9977 44.3473C13.7728 44.698 13.6821 44.9756 13.8008 44.9351C13.8957 44.9027 14.1527 44.5684 14.337 44.1767C14.7225 43.4424 15.2224 43.3539 15.4402 43.9918C15.6664 44.6543 13.8326 48.2116 13.1442 48.4466C12.4795 48.6735 11.9529 50.0039 11.862 51.6786C11.7921 52.7161 11.1148 54.0705 10.5687 54.2569C9.99901 54.4514 9.71139 53.9195 10.108 53.3732C10.4893 52.8595 10.4893 52.8595 9.4071 52.4071C8.84577 52.1604 8.38639 51.8242 8.41573 51.6772C8.44506 51.5302 8.93383 51.2538 9.47983 51.0674C10.1683 50.8323 10.6556 50.4742 10.9028 50.0336L11.305 49.3484L10.7562 49.8371C10.3177 50.2608 9.977 50.3497 9.02886 50.2899C7.49982 50.2366 6.98593 50.4395 6.42032 51.3448C5.71505 52.4622 4.55013 56.5034 3.97873 59.8763C3.35564 63.486 2.93517 65.4376 2.40441 66.9885C2.13903 67.764 2.08449 68.7688 2.21844 70.0928C2.49335 72.218 2.35786 72.6751 1.34684 73.1299C0.793853 73.3735 0.672338 73.7163 0.478101 75.3989C0.135718 78.6662 0.289041 82.0656 0.871174 84.0036C1.24112 85.1649 1.43231 86.5789 1.46987 88.3194C1.49624 90.3376 1.81863 92.4465 2.91855 97.6869C5.22725 108.952 5.45758 109.86 7.52514 115.838C9.69461 122.193 10.7096 124.312 13.382 127.947C14.189 129.069 14.9164 130.19 15.017 130.485C15.1091 130.754 15.9915 132.097 16.9535 133.44C18.682 135.863 19.6887 137.957 19.4805 138.823C19.4219 139.117 18.9695 138.723 17.9865 137.552C17.199 136.643 16.4031 135.709 16.2161 135.472C15.9731 135.226 16.1001 135.676 16.5218 136.6C16.8945 137.459 17.5661 138.572 18.0129 139.105C18.4834 139.629 20.7161 142.209 22.9654 144.838C30.4438 153.544 33.9917 156.716 39.2978 159.37C43.0302 161.219 46.644 162.176 52.1848 162.723C52.9737 162.782 54.2374 163.145 55.032 163.531C59.7893 165.743 70.0569 166.237 78.7453 164.668C81.5465 164.177 89.8566 161.888 90.1136 161.554C90.2616 161.366 90.1415 161.325 89.8092 161.438C89.4056 161.576 89.2129 161.478 89.0705 161.06C88.7187 160.03 89.9574 159.388 96.5876 157.07C101.018 155.529 103.485 154.523 106.365 153.101C108.496 152.045 111.119 150.876 112.235 150.495C116.816 148.931 119.925 146.856 128.157 139.991C131.021 137.589 133.534 135.553 133.747 135.48C134.293 135.294 137.191 132.058 138.941 129.652C148.19 117.071 152.779 102.793 152.352 88.0359C152.128 80.4693 149.388 69.1046 145.853 61.0794C142.963 54.4777 139.065 48.4942 134.068 42.9406C123.79 31.5468 107.665 22.6696 93.7921 20.7763C80.972 19.0167 68.7911 21.6138 58.7002 28.2366C52.7261 32.1664 48.4025 36.7381 44.0815 43.8018C36.2677 56.5507 33.0059 71.1425 34.8718 84.9151C35.8333 91.8465 39.1881 100.974 42.9718 106.778C44.3694 108.93 45.6777 110.511 48.3669 113.264C54.9113 119.933 63.3507 124.311 72.0305 125.512C75.453 125.987 82.6863 125.901 86.0279 125.363C91.6555 124.455 98.3821 121.72 106.581 117.086C108.575 115.939 110.27 115.005 110.389 114.964C110.816 114.818 113.241 110.895 114.425 108.463C116.753 103.559 118.169 97.9254 118.67 91.3168C118.864 88.7027 118.808 87.763 118.02 83.0463C117.008 76.8993 115.834 72.9169 114.414 70.854C113.851 70.0599 113.238 68.6528 112.61 66.8127C111.531 63.7294 110.023 61.176 106.57 56.5745C104.56 53.9461 103.31 53.003 99.0889 50.965C93.5678 48.3024 88.02 47.3474 81.8549 48.0002L79.7896 48.2396L75.2232 50.7026C72.6998 52.0846 69.738 53.8902 68.6222 54.7369C65.1254 57.3826 63.3936 60.3846 63.3026 63.9222L63.2647 65.4418L66.8486 73.5325C68.8423 77.9747 70.7606 82.196 71.1543 82.8834C73.3491 86.983 78.2572 89.6358 84.8425 90.2914C85.9428 90.4088 86.9622 90.4443 87.0725 90.3793C88.1855 89.8349 90.6097 88.2402 90.7955 87.9303C90.9114 87.7263 90.9198 87.2851 90.8193 86.9907C90.6434 86.4755 90.508 86.4669 88.7652 86.9523C85.9849 87.7371 80.9175 87.4126 78.4474 86.3108C73.8674 84.231 71.9029 81.5047 67.2636 70.7883L65.8716 67.5652L66.6509 66.1212C68.905 62.0095 74.1586 58.2983 81.2329 55.8831L83.9391 54.9592L86.7486 55.4245C89.702 55.923 92.5952 57.0994 93.8337 58.3203C94.5137 58.9922 98.9941 66.448 101.722 71.4887C103.102 73.9764 103.65 75.3506 105.074 79.5215C106.917 84.9192 107.276 86.824 107.042 90.4102C106.637 96.5207 104.839 101.271 101.524 104.759C99.2644 107.147 97.2465 108.767 94.0961 110.719C92.1271 111.939 91.1943 112.312 86.7313 113.836C83.0517 115.092 80.9682 115.667 79.2297 115.931C71.4657 117.103 64.1948 115.914 58.7491 112.541C56.2958 111.023 52.5398 107.785 50.1787 105.139C43.9137 98.0459 39.8246 86.4568 39.6175 75.2135C39.4883 67.6145 41.0975 60.6821 44.881 52.4322C50.0932 41.1467 57.2838 33.8704 67.7054 29.381C71.103 27.9197 80.1866 26.1883 84.7221 26.1192C96.9838 25.9326 110.546 32.0411 120.565 42.2086C126.048 47.788 128.227 51.4545 131.233 60.1809C134.868 70.8291 136.226 80.9399 135.42 91.5431C134.943 97.6779 134.162 101.835 132.091 109.199C129.681 117.747 126.97 122.151 118.954 130.504C116.186 133.421 114.987 134.488 114.322 134.715C112.874 135.209 110.444 136.943 107.08 139.9L103.983 142.628L100.859 143.804C98.1065 144.826 97.365 145.216 94.3123 147.299C90.4176 149.944 90.8602 149.766 77.7841 154.011C70.9137 156.247 70.8425 156.271 68.8512 156.184C67.7523 156.148 66.3042 156.177 65.6451 156.265C63.827 156.529 62.9389 156.257 60.9966 154.838C59.0949 153.46 57.4528 152.843 57.1916 153.398C56.8843 154.051 55.763 154.105 53.8361 153.585C52.7329 153.304 51.4958 153.096 51.0349 153.144C50.1454 153.256 46.6365 151.44 44.2334 149.603C43.4194 149.005 41.7271 147.774 40.4466 146.896C36.6613 144.271 32.5115 139.88 30.1701 136.05C29.2528 134.528 27.2562 131.785 26.6977 131.236C26.4631 131.015 26.0386 130.858 25.7677 130.841C25.3223 130.856 25.2078 130.676 24.9412 129.507C24.6159 128.166 24.2962 127.618 22.4741 125.309C21.8318 124.514 21.4688 124.227 21.2649 124.407C20.8334 124.773 19.8351 123.635 19.3576 122.236C19.1315 121.574 18.8187 120.968 18.6511 120.943C18.1638 120.836 18.1806 120.419 18.6791 120.249C19.0827 120.111 19.0953 119.915 18.7854 119.007C18.576 118.394 18.2157 117.805 17.9909 117.69C16.5541 116.975 15.7876 114.963 15.4193 111.089C15.291 109.626 14.9909 107.893 14.7564 107.206C14.0695 105.194 13.5545 101.589 13.2938 97.0212C13.0902 93.4746 12.8934 92.1994 12.2066 89.7218C11.2573 86.3202 11.2462 85.2008 12.1525 84.6723C12.665 84.3877 12.9667 83.4081 13.9641 78.8762C14.8582 74.8179 15.0957 73.3397 14.843 72.9876C14.1337 71.997 13.9034 70.6237 14.1814 68.7207C14.3463 67.6508 14.419 66.7768 14.3547 66.7439C14.0657 66.5961 13.0586 69.6246 13.2429 70.1643C13.3937 70.606 13.3406 70.761 12.9748 70.7764C12.514 70.8241 12.4232 71.1017 12.3574 72.85C12.3266 73.8467 11.5012 75.8544 11.0738 76.0003C10.5991 76.1624 10.6047 75.5578 11.1217 71.3268C11.8176 65.4459 13.0287 60.3754 15.2034 54.4005C16.5791 50.5887 20.4771 42.5188 22.8527 38.53C24.4392 35.8789 24.6962 35.5446 25.4418 35.3997C27.1161 35.102 30.7875 31.9583 30.8155 30.7982C30.8351 30.0792 31.4845 29.4192 33.1714 28.4598C33.8333 28.0694 34.4701 27.6055 34.6014 27.3689C34.7872 27.0589 34.8989 27.0756 35.1362 27.4603C35.4462 27.9023 35.4699 27.8942 36.3567 27.1532C37.2044 26.4529 37.2504 26.3549 36.8651 25.692C36.0023 24.0964 37.8597 20.9967 40.9375 18.9871C41.5282 18.6211 42.4457 17.8148 42.9931 17.2443C45.8392 14.2455 50.8065 11.0155 55.7149 9.01104C61.9039 6.48718 67.9713 5.2376 77.7559 4.47225C81.8655 4.16501 91.3107 3.57028 92.0354 3.59682C94.042 3.65141 86.1009 1.89717 80.8506 1.11455C73.9888 0.115021 68.1226 0.0905505 62.3372 1.07946C59.5835 1.55387 50.4244 4.46166 47.0436 5.972Z" fill="#2D2D2D"/>
</svg>
