<svg width="230" height="230" viewBox="0 0 247 255" fill="none" xmlns="http://www.w3.org/2000/svg">
<path d="M158.607 5.65764C157.23 11.1548 156.625 12.5845 157.26 8.80815C157.612 6.64741 157.448 6.43485 156.763 8.19089C156.114 9.89067 155.819 9.86233 156.209 8.16448C156.391 7.32328 156.612 6.05935 156.693 5.36651C156.794 4.41904 156.639 4.87828 156.081 7.26961C155.681 9.00825 154.926 11.5894 154.447 13.0283C153.241 16.4933 148.68 35.1259 147.982 39.4269C147.132 44.5334 146.332 51.8332 146.559 52.4066C146.668 52.757 148.383 53.7775 148.744 53.7137C148.921 53.692 149.103 53.5634 149.143 53.4003C149.183 53.2371 149.294 53.1345 149.396 53.1591C149.701 53.2332 149.898 53.8425 150.014 55.1447C150.239 57.5963 150.995 58.9243 152.344 59.3163C153.353 59.604 153.621 59.3882 153.456 58.3766C153.361 57.7919 153.42 57.4606 153.601 57.2455C153.768 57.0916 154.055 56.7077 154.231 56.4264C154.432 56.1297 154.792 55.8929 155.03 55.886C155.467 55.8624 155.513 55.7654 155.856 53.9915C156.106 52.6052 156.142 51.8364 155.979 51.0843C155.858 50.5151 155.699 48.6839 155.632 47.0048C155.514 43.8448 155.791 41.1909 156.422 39.8323L156.757 39.0714L156.904 39.7116C157.207 40.8648 157.441 40.2522 157.514 38.175C157.557 36.3067 157.536 36.1287 157.088 36.0201C156.721 35.9312 156.644 35.8045 156.758 35.3354C157.459 32.3526 158.059 26.2351 158.421 18.1598C158.833 9.16798 159.138 5.33301 159.806 1.15431C159.874 0.695708 159.339 2.72548 158.607 5.65764Z" fill="#2D2D2D"/>
<path d="M202.765 27.2709C199.332 30.0451 196.37 33.2789 191.26 39.771C189.33 42.2184 187.107 44.9835 186.32 45.9157C185.533 46.848 184.495 48.1943 184.017 48.9207C183.544 49.6266 182.205 51.5911 181.022 53.2694C177.105 58.8415 175.397 61.8828 174.393 65.1376L173.786 67.1068L174.562 66.928C175.572 66.6762 177.589 65.7398 179.685 64.5637C181.341 63.6046 181.361 63.6096 183.354 60.6375C186.001 56.7443 190.154 49.9336 195.234 41.1665C197.495 37.2661 200.385 32.3735 201.641 30.3027C202.898 28.2319 203.898 26.5092 203.883 26.4838C203.852 26.4332 203.356 26.7881 202.765 27.2709Z" fill="#2D2D2D"/>
<path d="M105.582 4.87216C105.662 5.43145 106.071 12.6357 106.186 15.363C106.335 18.6602 106.408 24.228 106.307 24.2898C106.256 24.3207 106.056 23.2788 105.875 21.9822C105.693 20.6857 105.493 19.6437 105.442 19.6746C105.27 19.7624 106.229 30.0369 106.676 33.0824C107.694 40.0022 109.432 45.3693 112.054 49.7627C113.103 51.5719 113.277 51.7437 114.031 51.9264C115.151 52.198 116.241 51.7928 117.037 50.8198C117.673 50.0669 117.707 49.9241 117.66 48.9625C117.646 48.3976 117.681 47.5422 117.739 47.0379C117.86 46.1819 117.716 45.8877 117.347 46.2519C116.918 46.6877 116.569 46.0846 115.537 43.0486C110.799 29.4175 107.011 14.8072 105.956 6.17237C105.844 5.30284 105.702 4.55568 105.64 4.54087C105.579 4.52606 105.565 4.67377 105.582 4.87216Z" fill="#2D2D2D"/>
<path d="M238.761 66.4493C231.48 67.6641 226.061 69.7405 213.031 76.256C203.406 81.0919 198.045 83.5496 196.167 84.0013C195.782 84.0806 194.735 84.1291 193.815 84.1003C191.502 84.0361 190.486 84.2218 189.52 84.9162C188.918 85.3533 188.355 85.5407 187.481 85.588C186.236 85.6533 185.841 85.7733 185.148 86.318C184.774 86.616 184.789 86.6413 185.353 86.6269C186.238 86.6254 186.602 87.0808 186.912 88.6462C187.29 90.379 187.109 90.6807 185.238 91.3716C183.96 91.8392 183.93 91.875 184.465 92.0696C184.761 92.1844 184.934 92.3562 184.828 92.4384C184.742 92.5256 184.726 93.0398 184.785 93.5941C184.87 94.133 184.834 94.7288 184.708 94.8927C184.511 95.169 184.669 95.2289 186.196 95.5127C188.328 95.8785 190.096 95.789 194.971 95.0706C197.073 94.7597 198.937 94.5422 199.121 94.5867C199.284 94.6262 199.744 94.3275 200.128 93.9022C200.506 93.4973 201.824 92.2404 203.047 91.1115C210.958 83.83 221.043 77.9828 238.879 70.3218C241.62 69.1511 243.885 68.0806 243.915 67.9582C243.96 67.8612 243.902 67.5664 243.809 67.3278C243.659 66.9676 243.313 66.7971 242.177 66.5002C240.924 66.1532 240.492 66.1565 238.761 66.4493Z" fill="#2D2D2D"/>
<path d="M57.9696 41.0754C59.026 43.2104 60.2964 45.4404 60.9528 46.2907C62.4807 48.2592 63.8178 50.5703 64.1512 51.7741C64.4637 52.8864 64.4637 52.8864 62.8938 50.7349C61.7601 49.1859 60.7564 48.0787 60.3898 47.9898C59.9011 47.8713 60.4215 48.9261 61.8322 50.8447C63.0276 52.495 63.9798 54.2592 63.871 54.708C63.8513 54.7895 63.6075 54.8168 63.3631 54.7576C62.8132 54.6242 61.8145 53.4966 61.12 52.27C60.8783 51.8443 60.5088 51.3228 60.3095 51.1665C60.1152 50.9898 60.6208 52.1058 61.4293 53.6624C62.2378 55.2189 63.5612 57.7642 64.3697 59.3208C68.4071 67.124 71.4142 71.3517 75.1307 74.5204C76.4035 75.5849 78.8956 77.3122 79.3436 77.4208C79.4862 77.4554 79.924 76.8057 80.3854 75.881C81.0272 74.5681 81.1564 74.1243 81.1308 73.3406C81.1011 71.9513 81.5666 71.6323 83.4879 71.623C84.3519 71.6166 85.3117 71.4822 85.6611 71.2862C86.2031 71.0073 86.2938 70.8997 86.2391 70.325C86.19 69.8163 85.9593 69.5228 85.0807 68.8779C83.6709 67.845 83.3427 67.4199 83.7372 67.1268C83.8989 66.9933 84.3155 66.9647 84.6414 67.0437C85.4152 67.2314 85.6314 66.8734 85.3195 65.8476C85.0545 64.9843 84.6196 64.5549 84.061 64.6354C83.6345 64.7048 83.3508 64.0961 83.3907 63.2203L83.4064 62.5331L80.8812 61.9208C78.0505 61.2344 77.6932 61.0182 74.8861 58.545C72.7946 56.6774 70.9458 54.6094 67.5364 50.2626C65.8752 48.1321 63.9019 45.6884 63.1795 44.8438C62.0013 43.4783 61.802 43.322 61.381 43.4575C60.9804 43.5979 60.7916 43.4873 59.9878 42.6229C59.4961 42.0718 58.4141 40.6649 57.5981 39.4952L56.135 37.348L57.9696 41.0754Z" fill="#2D2D2D"/>
<path d="M143.544 59.7738C138.766 59.0256 133.984 59.0969 130.188 59.9905C128.929 60.29 127.34 60.5309 126.633 60.5107C124.996 60.5026 122.5 61.1065 120.645 61.9093C119.824 62.2717 117.463 63.4702 115.387 64.5647C111.279 66.7433 109.52 67.5046 107.708 67.8642L106.526 68.1174L106.982 68.7248L107.438 69.3321L106.835 69.5962C106.035 69.9636 105.323 69.9638 104.899 69.5801C104.597 69.3126 104.394 69.3497 103.66 69.798C103.174 70.1121 102.764 70.3799 102.749 70.4411C102.739 70.4819 102.959 70.6431 103.265 70.8037L103.78 71.0798L103.198 71.3488C102.883 71.4886 102.696 71.6376 102.798 71.6623C102.88 71.682 103.209 71.5676 103.513 71.3821C104.111 71.0519 104.503 71.2118 104.374 71.7422C104.241 72.2929 101.37 73.9074 100.779 73.7642C100.209 73.6259 99.2477 74.2999 98.4419 75.4002C97.933 76.0759 96.8546 76.6998 96.3862 76.5862C95.8974 76.4677 95.9297 75.9788 96.4519 75.7815C96.9488 75.5997 96.9488 75.5997 96.3844 74.815C96.097 74.3997 95.9213 73.9684 96.0071 73.8812C96.0929 73.7941 96.5607 73.8211 97.0291 73.9347C97.6197 74.0779 98.1227 74.0487 98.4925 73.8576L99.0801 73.5682L98.4759 73.6592C97.9784 73.7545 97.6983 73.665 97.0547 73.2066C95.9978 72.4968 95.5448 72.4086 94.7442 72.7759C93.751 73.2262 91.1382 75.4649 89.2408 77.5099C87.2019 79.6934 86.0406 80.8371 84.9787 81.6594C84.4478 82.0705 83.9642 82.7308 83.4726 83.6913C82.7258 85.2595 82.4276 85.5111 81.5117 85.3754C81.0131 85.2977 80.7754 85.4776 79.893 86.5378C78.2042 88.6118 76.8072 90.9941 76.3603 92.5702C76.1075 93.5239 75.6164 94.571 74.8722 95.7727C73.9971 97.1586 73.291 98.7366 71.7477 102.79C68.3904 111.478 68.1513 112.197 66.9649 117.179C65.6839 122.461 65.4628 124.351 65.7415 128.004C65.8151 129.123 65.8326 130.207 65.7732 130.452C65.7188 130.676 65.7479 131.979 65.8332 133.317C65.9815 135.729 65.7654 137.598 65.235 138.096C65.0634 138.27 64.9179 137.803 64.7419 136.573C64.588 135.607 64.439 134.62 64.412 134.376C64.3491 134.102 64.2398 134.464 64.1283 135.279C64.0114 136.028 63.9931 137.082 64.0731 137.641C64.1734 138.206 64.6087 140.946 65.034 143.727C66.4633 152.949 67.5659 156.672 70.1403 160.816C71.9592 163.719 74.0888 165.963 77.7623 168.776C78.2935 169.164 79.0258 169.968 79.4162 170.581C81.7989 174.182 88.8358 179.041 95.6705 181.8C97.8673 182.7 104.753 184.801 105.083 184.687C105.271 184.624 105.204 184.544 104.919 184.474C104.573 184.39 104.48 184.238 104.564 183.892C104.772 183.035 105.932 183.143 111.644 184.485C115.457 185.388 117.645 185.789 120.311 186.09C122.284 186.31 124.655 186.669 125.613 186.901C129.543 187.854 132.658 187.81 141.516 186.762C144.604 186.387 147.281 186.108 147.464 186.152C147.932 186.266 151.413 185.339 153.715 184.472C165.823 179.979 175.388 172.278 181.622 162.041C184.814 156.79 187.91 147.844 188.966 140.823C189.847 135.054 189.742 129.263 188.67 123.28C186.453 110.994 178.989 97.8467 170.024 90.4466C161.743 83.6014 151.986 80.0043 141.922 80.0692C135.96 80.1137 130.88 81.3222 124.698 84.2288C113.531 89.4682 104.764 97.9675 99.9838 108.168C97.5938 113.311 95.9224 121.004 96.0263 126.623C96.0606 128.704 96.2852 130.357 96.9666 133.416C98.6379 140.84 102.663 147.539 108.265 152.179C110.473 154.011 115.623 157.138 118.222 158.244C122.601 160.104 128.566 161.205 136.412 161.661C138.329 161.758 139.941 161.869 140.042 161.893C140.409 161.982 143.86 160.379 145.773 159.244C149.59 156.931 153.086 153.718 156.366 149.439C157.661 147.744 158.038 147.08 159.569 143.521C161.576 138.889 162.51 135.66 162.42 133.63C162.375 132.842 162.564 131.613 162.935 130.084C163.538 127.509 163.603 125.106 163.201 120.452C162.944 117.776 162.479 116.584 160.398 113.336C157.676 109.091 154.178 105.997 149.532 103.726L147.967 102.98L143.649 102.645C141.254 102.475 138.362 102.4 137.198 102.485C133.555 102.746 131.002 104.027 129.371 106.396L128.672 107.414L127.621 114.502C127.063 118.405 126.549 122.125 126.523 122.766C126.259 126.524 128.552 130.493 132.916 133.84C133.641 134.405 134.346 134.878 134.453 134.882C135.48 135.002 137.9 134.984 138.168 134.854C138.34 134.767 138.542 134.47 138.601 134.225C138.705 133.797 138.613 133.731 137.166 133.294C134.854 132.604 131.417 130.151 130.159 128.312C127.844 124.879 127.663 122.157 129.13 112.816L129.574 110.008L130.764 109.368C134.177 107.562 139.533 107.349 145.602 108.82L147.924 109.383L149.703 110.937C151.569 112.578 153.093 114.653 153.427 116.03C153.61 116.787 153.475 123.838 153.17 128.472C153.044 130.773 152.823 131.951 151.982 135.418C150.894 139.905 150.304 141.36 148.551 143.7C145.558 147.682 142.185 150.125 138.297 151.039C135.643 151.67 133.5 151.884 130.409 151.826C128.477 151.79 127.653 151.633 123.824 150.704C120.667 149.939 118.941 149.412 117.595 148.827C111.59 146.205 106.978 142.192 104.623 137.497C103.562 135.382 102.342 131.523 101.845 128.681C100.559 121.092 102.801 111.399 107.634 103.652C110.907 98.4205 115.115 94.4088 121.442 90.4577C130.122 85.0689 138.426 83.2815 147.779 84.8151C150.827 85.3167 158.013 88.1389 161.248 90.0896C169.996 95.3637 176.875 105.497 179.452 116.834C180.856 123.048 180.773 126.505 179.032 133.771C176.886 142.623 173.368 150.106 168.103 156.971C165.049 160.938 162.656 163.425 157.931 167.527C152.443 172.286 148.577 174.091 139.214 176.248C135.966 177.015 134.646 177.213 134.076 177.075C132.833 176.774 130.349 176.884 126.662 177.415L123.265 177.909L120.536 177.334C118.139 176.817 117.442 176.756 114.362 176.83C110.439 176.915 110.831 176.989 99.7106 174.12C93.8653 172.616 93.8042 172.601 92.4357 171.665C91.6749 171.156 90.6389 170.538 90.1342 170.307C88.7322 169.687 88.2251 169.11 87.4809 167.289C86.7472 165.513 85.8602 164.369 85.4299 164.632C84.9237 164.941 84.1074 164.484 82.9759 163.281C82.3208 162.604 81.5385 161.917 81.1917 161.747C80.5136 161.431 78.8378 158.649 77.9531 156.34C77.643 155.574 76.9919 153.991 76.4758 152.829C74.9633 149.374 73.9753 144.556 74.0169 140.916C74.0428 139.476 73.8464 136.729 73.6948 136.109C73.6271 135.855 73.3964 135.561 73.2125 135.43C72.891 135.244 72.8899 135.071 73.2192 134.158C73.5831 133.102 73.6 132.587 73.335 130.212C73.2329 129.388 73.1034 129.033 72.88 129.065C72.4127 129.125 72.2114 127.91 72.4933 126.747C72.6269 126.197 72.674 125.646 72.5666 125.556C72.2699 125.268 72.4663 124.991 72.8939 125.095C73.2401 125.179 73.3358 125.051 73.5188 124.296C73.6425 123.787 73.6489 123.227 73.5409 123.049C72.8421 121.93 73.1915 120.222 74.6468 117.422C75.2039 116.369 75.7593 115.057 75.8977 114.486C76.3033 112.813 77.5356 110.132 79.3743 106.906C80.801 104.402 81.2266 103.447 81.8384 101.457C82.674 98.7227 83.1619 97.9555 84.0364 97.9948C84.5246 98.0268 85.1716 97.4926 87.8833 94.846C90.3122 92.4764 91.1347 91.5744 91.112 91.2234C91.0494 90.2364 91.4948 89.1999 92.534 88.0265C93.1243 87.3706 93.5627 86.8074 93.5319 86.7568C93.3931 86.5288 91.3404 88.1474 91.2316 88.5961C91.1425 88.9633 91.0363 89.0455 90.771 88.8948C90.4242 88.7243 90.2372 88.8733 89.4165 90.0348C88.9533 90.7 87.4809 91.7035 87.1144 91.6146C86.7071 91.5158 86.9788 91.1066 89.2178 88.4533C92.3138 84.7553 95.4151 81.8361 99.5977 78.7255C102.258 76.7359 108.586 72.9578 112.031 71.288C114.326 70.1817 114.656 70.0672 115.247 70.297C116.562 70.8318 120.549 70.3083 121.082 69.5307C121.415 69.0498 122.166 68.8864 123.783 68.9761C124.423 69.0019 125.079 68.9665 125.276 68.8632C125.545 68.7339 125.616 68.7945 125.614 69.161C125.637 69.5985 125.657 69.6035 126.612 69.4895C127.521 69.386 127.597 69.3396 127.618 68.7185C127.715 67.2519 130.401 65.9594 133.466 65.9467C134.045 65.9576 135.05 65.8127 135.69 65.6654C139.029 64.877 143.97 64.8656 148.326 65.6628C153.817 66.6704 158.658 68.4921 165.912 72.2809C168.952 73.8819 175.89 77.6374 176.39 77.9747C177.784 78.8958 172.949 74.2033 169.585 71.3577C165.179 67.6546 161.044 65.0539 156.518 63.1789C154.362 62.289 146.602 60.2346 143.544 59.7738Z" fill="#2D2D2D"/>
<path d="M58.2329 47.7259C58.223 47.7667 58.5733 48.4563 59.0309 49.2368C59.5404 50.1593 59.9247 50.6197 60.0407 50.4966C60.1519 50.394 60.35 50.3773 60.4981 50.4779C61.0497 50.8708 60.7518 50.4099 59.5229 49.0753C58.8264 48.3018 58.2379 47.7055 58.2329 47.7259Z" fill="#2D2D2D"/>
<path d="M101.061 71.1764C101.022 71.3396 101.099 71.4663 101.251 71.4601C101.648 71.4266 101.803 71.0538 101.436 70.965C101.273 70.9254 101.096 71.0337 101.061 71.1764Z" fill="#2D2D2D"/>
<path d="M243.583 118.325C242.387 118.1 241.298 117.966 241.156 118.018C240.669 118.159 234.984 117.773 231.428 117.322C229.48 117.087 224.065 116.206 219.394 115.375C207.878 113.339 207.898 113.344 205.98 113.786C203.488 114.369 200.375 114.759 198.219 114.754C196.298 114.764 196.252 114.774 196.038 115.392C195.788 116.065 195.86 116.126 197.567 116.734C198.02 116.909 198.602 117.266 198.843 117.519L199.273 117.969L198.438 118.565C197.973 118.884 197.261 119.597 196.827 120.14L196.051 121.118L196.395 121.568C196.574 121.806 197.258 122.274 197.916 122.585C198.997 123.106 199.41 123.185 201.993 123.379C209.341 123.93 215.479 123.518 229.591 121.519C237.162 120.44 241.992 119.818 244.41 119.627C245.228 119.545 245.903 119.428 245.918 119.367C246.011 118.892 245.583 118.702 243.583 118.325Z" fill="#2D2D2D"/>
<path d="M10.1653 72.1138C19.4941 79.1701 23.1042 81.622 27.9301 84.2175L30.7969 85.7332L28.887 85.1621C27.8379 84.8646 26.1112 84.3379 25.0721 83.9996C23.8292 83.6118 23.2337 83.489 23.3262 83.641C23.5421 83.9957 27.2028 86.4166 29.2692 87.5872C32.8357 89.5965 36.6448 91.4056 41.3691 93.2638C43.8307 94.2278 45.3024 94.6495 52.3894 96.3679C56.8697 97.4543 61.9553 98.6227 63.6654 98.9509L66.7498 99.5693L66.563 99.0057C66.3559 98.4372 66.3861 98.4013 67.5201 97.7261C68.1733 97.3446 68.7295 96.9179 68.7641 96.7752C68.8878 96.2653 67.9391 95.0202 66.4411 93.7284C65.623 93.0117 64.9271 92.3247 64.8753 92.1825C64.72 91.7561 65.0537 90.7357 65.4927 90.259C66.0379 89.7002 66.0818 89.4301 65.7888 88.9487C65.4496 88.3914 65.1139 88.3531 64.7613 88.8291C64.4791 89.1926 64.2557 89.2248 62.9325 88.9904C61.5687 88.7461 61.3453 88.7783 60.8143 89.1894L60.2074 89.6469L55.6161 88.6632C52.1546 87.9102 49.4862 87.1768 44.7389 85.6802C41.2955 84.5861 37.0431 83.3606 35.3324 82.9458C32.4814 82.2545 31.9056 82.0501 28.5859 80.446C19.0758 75.9157 9.15785 71.2 9.03566 71.1704C8.9542 71.1507 9.47554 71.5794 10.1653 72.1138Z" fill="#2D2D2D"/>
<path d="M194.793 147.203C192.327 147.771 192.357 147.735 193.842 150.147C197.013 155.299 201.467 158.626 209.03 161.496C211.241 162.334 213.472 162.918 223.46 165.297C236.565 168.432 238.312 168.963 240.609 170.514C241.467 171.067 242.192 171.545 242.274 171.565C242.335 171.58 242.164 171.215 241.892 170.738C241.527 170.11 241.432 169.698 241.556 169.189C241.69 168.638 241.581 168.374 241.017 167.676C237.84 163.882 233.425 161.105 226.751 158.753C225.681 158.364 222.395 157.329 219.466 156.425C210.11 153.573 208.775 153.033 204.533 150.428C201.292 148.411 199.711 147.639 197.858 147.19C196.595 146.884 196.184 146.892 194.793 147.203Z" fill="#2D2D2D"/>
<path d="M65.0816 119.076C65.0271 119.3 65.0696 119.57 65.1566 119.656C65.259 119.767 65.385 119.603 65.4542 119.318C65.5235 119.032 65.5014 118.768 65.3792 118.738C65.2773 118.713 65.131 118.872 65.0816 119.076Z" fill="#2D2D2D"/>
<path d="M57.0341 124.165C56.4816 124.398 54.8425 124.044 52.7734 123.24C51.1018 122.575 49.8915 122.498 49.168 122.992C48.9353 123.151 48.3717 123.252 47.9447 123.235C46.7394 123.137 44.7401 123.646 41.0489 124.997C39.1983 125.693 37.3873 126.225 37.0416 126.228C36.6146 126.211 36.3664 126.345 36.3071 126.59C36.1191 127.365 34.5112 127.86 29.8907 128.597C28.5452 128.811 26.7484 129.196 25.9114 129.446C23.3041 130.239 22.0401 130.473 20.9922 130.348C20.2596 130.257 20.1016 130.197 20.3652 130.088C20.6492 129.984 20.5011 129.883 19.7883 129.711C18.709 129.449 17.9942 129.729 18.521 130.224C18.9967 130.663 18.5405 130.855 17.3247 130.711C16.0633 130.578 15.5763 130.719 15.0317 131.365C14.7544 131.708 14.4551 131.786 13.8749 131.689C13.4578 131.631 13.0868 131.649 13.067 131.731C13.0423 131.833 12.4276 131.878 11.6802 131.848L10.3533 131.807L11.2252 132.213C12.6883 132.848 12.7296 132.944 11.837 133.246C11.3957 133.377 9.27599 134.115 7.131 134.869C4.99095 135.603 2.62253 136.389 1.88677 136.578C1.13066 136.762 0.456002 136.965 0.375125 137.032C0.0411419 137.254 4.56911 137.876 7.02976 137.955C9.68358 138.037 13.9826 138.626 13.9133 138.911C13.8787 139.054 10.1057 139.586 7.73322 139.767C6.85927 139.814 6.16862 139.905 6.19946 139.956C6.23029 140.007 8.01018 140.136 10.1406 140.242C12.276 140.328 14.8847 140.507 15.9277 140.652C20.3891 141.194 24.842 141.237 30.1709 140.78C34.245 140.429 40.3189 139.656 41.9225 139.267C43.5921 138.873 45.685 138.69 48.6889 138.662C52.5518 138.649 54.5836 138.45 56.1403 137.899C57.9304 137.275 58.178 137.054 58.8445 135.639C59.3257 134.633 59.3801 134.409 59.1834 133.886C58.9966 133.322 59.0065 133.281 59.6652 132.966C60.3084 132.625 60.3436 132.569 60.3372 131.617C60.3206 129.907 60.1222 129.125 59.6742 129.016C59.4502 128.962 59.186 128.984 59.0953 129.092C58.8125 129.369 58.1195 129.114 58.0709 128.692C58.0279 128.336 58.9335 127.714 59.5735 127.653C60.1019 127.608 59.7045 125.957 58.9204 125.011C58.1413 124.045 57.7334 123.859 57.0341 124.165Z" fill="#2D2D2D"/>
<path d="M178.317 178.516C176.883 178.471 176.654 178.524 176.931 178.807C177.381 179.262 176.778 179.439 175.698 179.177C174.884 178.98 174.513 178.998 174.153 179.235C173.713 179.538 173.703 179.579 174.254 180.598C175.067 182.134 177.136 185.163 178.535 186.862C181.651 190.641 185.134 193.883 192.192 199.546C194.916 201.74 198.064 204.318 199.194 205.261C200.298 206.22 201.284 206.956 201.36 206.909C201.563 206.786 201.008 203.649 200.498 201.928C199.012 197.032 195.788 191.651 193.039 189.472C192.375 188.922 190.528 187.114 188.951 185.436C185.899 182.191 184.759 181.115 183.115 180.069C181.88 179.294 179.643 178.558 178.317 178.516Z" fill="#2D2D2D"/>
<path d="M64.7386 161.04C64.3793 161.277 64.036 161.625 63.9865 161.829C63.9371 162.033 63.0919 162.584 62.0178 163.101C49.6756 169.006 37.0046 177.422 21.6114 189.951C18.3609 192.597 18.0831 192.853 18.3699 193.182C18.6519 193.531 18.642 193.572 18.0246 193.984C17.6703 194.2 16.4042 194.887 15.1831 195.476C12.9541 196.577 10.9903 197.828 11.8884 197.593C12.1217 197.52 14.7482 196.558 17.7346 195.447C21.537 193.993 23.0992 193.508 23.0399 193.753C22.9311 194.202 21.4567 195.658 20.2726 196.451C19.7565 196.801 20.1213 196.63 21.0732 196.084C23.6252 194.629 27.0506 193.041 27.6351 193.032C28.9311 193.022 28.6792 193.35 25.8604 195.193C24.2714 196.233 23.1027 197.051 23.2348 197.04C23.6107 197.001 32.0376 192.393 37.6176 189.211C40.2252 187.705 47.1917 183.607 53.0643 180.107C58.9369 176.607 64.6885 173.251 65.8281 172.642C68.3097 171.3 68.44 171.029 67.6929 168.775C67.0956 166.881 67.0965 166.255 67.7467 165.44C68.2407 164.826 68.2457 164.806 67.8154 163.557C67.297 162.049 66.5167 160.909 65.8854 160.756C65.6206 160.692 65.1133 160.828 64.7386 161.04Z" fill="#2D2D2D"/>
<path d="M71.5679 165.244C71.5234 165.428 73.68 167.916 74.5031 168.612C75.3261 169.308 77.021 170.41 77.1476 170.333C77.1932 170.323 76.6751 169.614 76.0138 168.784C75.0503 167.6 74.6616 167.247 74.071 167.104C73.5416 166.975 73.1584 166.688 72.7174 166.106C72.1789 165.392 71.6322 164.979 71.5679 165.244Z" fill="#2D2D2D"/>
<path d="M139.721 194.965C138.15 194.864 136.24 195.092 135.028 195.555C134.278 195.804 134.278 195.804 134.546 196.388C134.856 197.068 134.787 197.526 134.366 197.575C134.122 197.602 134.14 198.06 134.416 199.682C134.897 202.412 135.451 207.06 136.035 212.924C137.236 225.309 138.156 230.585 140.091 236.389L140.687 238.11L141.53 234.902C143.403 227.798 144.406 218.949 144.467 209.095C144.471 205.878 144.471 205.878 145.06 205.135C145.373 204.736 145.694 204.123 145.793 203.801C145.878 203.455 146.152 202.765 146.363 202.255C146.728 201.372 146.722 201.305 146.242 200.973C145.982 200.802 145.671 200.662 145.554 200.698C145.437 200.735 145.463 200.007 145.599 199.09L145.857 197.403L145.198 196.833C144.554 196.288 142.488 195.29 141.623 195.124C141.399 195.069 140.55 195.015 139.721 194.965Z" fill="#2D2D2D"/>
<path d="M93.8154 187.138C93.0852 187.393 92.3957 187.657 92.2944 187.719C92.1932 187.781 92.1862 188.254 92.2811 188.753L92.4498 189.657L90.514 192.039C84.8078 199.12 77.3566 209.753 70.3453 220.794C57.8369 240.545 54.8959 245.382 55.0013 245.925C55.0961 246.424 55.1726 246.464 55.609 246.354C56.6898 246.076 58.9011 244.604 60.8262 242.889C62.4024 241.457 63.3657 240.33 65.6424 237.254C79.8614 217.919 86.2449 210.267 94.9326 202.094C96.7762 200.36 97.1657 200.087 97.6137 200.196C98.3061 200.363 98.6247 200.117 99.3078 198.9C99.6697 198.297 100.069 197.897 100.388 197.823C100.667 197.74 100.941 197.677 100.992 197.646C101.043 197.615 100.76 197.093 100.339 196.516C99.7128 195.63 99.6141 195.325 99.7945 194.937C100.035 194.39 99.5786 193.07 98.2663 190.657C97.6126 189.441 95.5764 186.723 95.2814 186.694C95.2203 186.679 94.5456 186.883 93.8154 187.138Z" fill="#2D2D2D"/>
</svg>
