<svg width="308" height="321" viewBox="0 0 308 321" fill="none" xmlns="http://www.w3.org/2000/svg">
<g clip-path="url(#clip0_75_99)">
<path d="M187.607 40.6576C186.23 46.1548 185.625 47.5845 186.26 43.8081C186.612 41.6474 186.448 41.4348 185.763 43.1909C185.114 44.8907 184.819 44.8623 185.209 43.1645C185.391 42.3233 185.612 41.0593 185.693 40.3665C185.794 39.419 185.639 39.8783 185.081 42.2696C184.681 44.0082 183.926 46.5894 183.447 48.0283C182.241 51.4933 177.68 70.1259 176.982 74.4269C176.132 79.5334 175.332 86.8332 175.559 87.4066C175.668 87.757 177.383 88.7775 177.744 88.7137C177.921 88.692 178.103 88.5634 178.143 88.4002C178.183 88.2371 178.294 88.1344 178.396 88.1591C178.701 88.2332 178.898 88.8425 179.014 90.1447C179.239 92.5963 179.995 93.9243 181.344 94.3163C182.353 94.604 182.621 94.3882 182.456 93.3765C182.361 92.7919 182.42 92.4606 182.601 92.2455C182.768 92.0916 183.055 91.7077 183.231 91.4264C183.432 91.1297 183.792 90.8929 184.03 90.886C184.467 90.8624 184.513 90.7654 184.856 88.9915C185.106 87.6052 185.142 86.8364 184.979 86.0843C184.858 85.5151 184.699 83.6839 184.632 82.0048C184.514 78.8448 184.791 76.1909 185.422 74.8323L185.757 74.0714L185.904 74.7116C186.207 75.8648 186.441 75.2522 186.514 73.175C186.557 71.3067 186.536 71.1287 186.088 71.0201C185.721 70.9312 185.644 70.8045 185.758 70.3354C186.459 67.3526 187.059 61.2351 187.421 53.1598C187.833 44.168 188.138 40.333 188.806 36.1543C188.874 35.6957 188.339 37.7255 187.607 40.6576Z" fill="#2D2D2D"/>
<path d="M231.765 62.2709C228.332 65.0451 225.37 68.2789 220.26 74.771C218.33 77.2184 216.107 79.9835 215.32 80.9157C214.533 81.8479 213.495 83.1943 213.017 83.9207C212.544 84.6266 211.205 86.5911 210.022 88.2694C206.105 93.8415 204.397 96.8827 203.393 100.138L202.786 102.107L203.562 101.928C204.572 101.676 206.589 100.74 208.685 99.5637C210.341 98.6046 210.361 98.6096 212.354 95.6375C215.001 91.7443 219.154 84.9336 224.234 76.1665C226.495 72.2661 229.385 67.3735 230.641 65.3027C231.898 63.2319 232.898 61.5092 232.883 61.4838C232.852 61.4332 232.356 61.7881 231.765 62.2709Z" fill="#2D2D2D"/>
<path d="M134.582 39.8722C134.662 40.4314 135.071 47.6357 135.186 50.363C135.335 53.6602 135.408 59.228 135.307 59.2898C135.256 59.3207 135.056 58.2788 134.875 56.9822C134.693 55.6857 134.493 54.6437 134.442 54.6746C134.27 54.7624 135.229 65.0369 135.676 68.0824C136.694 75.0022 138.432 80.3693 141.054 84.7627C142.103 86.5719 142.277 86.7437 143.031 86.9264C144.151 87.198 145.241 86.7928 146.037 85.8198C146.673 85.0669 146.707 84.9241 146.66 83.9625C146.646 83.3976 146.681 82.5422 146.739 82.0379C146.86 81.1819 146.716 80.8877 146.347 81.2519C145.918 81.6877 145.569 81.0846 144.537 78.0486C139.799 64.4175 136.011 49.8072 134.956 41.1724C134.844 40.3028 134.702 39.5557 134.64 39.5409C134.579 39.5261 134.565 39.6738 134.582 39.8722Z" fill="#2D2D2D"/>
<path d="M267.761 101.449C260.48 102.664 255.061 104.74 242.031 111.256C232.406 116.092 227.045 118.55 225.167 119.001C224.782 119.081 223.735 119.129 222.815 119.1C220.502 119.036 219.486 119.222 218.52 119.916C217.918 120.353 217.355 120.541 216.481 120.588C215.236 120.653 214.841 120.773 214.148 121.318C213.774 121.616 213.789 121.641 214.353 121.627C215.238 121.625 215.602 122.081 215.912 123.646C216.29 125.379 216.109 125.681 214.238 126.372C212.96 126.839 212.93 126.875 213.465 127.07C213.761 127.184 213.934 127.356 213.828 127.438C213.742 127.526 213.726 128.04 213.785 128.594C213.87 129.133 213.834 129.729 213.708 129.893C213.511 130.169 213.669 130.229 215.196 130.513C217.328 130.879 219.096 130.789 223.971 130.071C226.073 129.76 227.937 129.542 228.121 129.587C228.284 129.626 228.744 129.328 229.128 128.902C229.506 128.497 230.824 127.24 232.047 126.112C239.958 118.83 250.043 112.983 267.879 105.322C270.62 104.151 272.885 103.081 272.915 102.958C272.96 102.861 272.902 102.566 272.809 102.328C272.659 101.968 272.313 101.797 271.177 101.5C269.924 101.153 269.492 101.156 267.761 101.449Z" fill="#2D2D2D"/>
<path d="M86.9696 76.0754C88.026 78.2104 89.2964 80.4404 89.9528 81.2907C91.4807 83.2592 92.8178 85.5703 93.1512 86.7741C93.4637 87.8864 93.4637 87.8864 91.8938 85.7349C90.7601 84.1859 89.7564 83.0787 89.3898 82.9898C88.9011 82.8713 89.4215 83.9261 90.8322 85.8447C92.0276 87.495 92.9798 89.2592 92.871 89.708C92.8513 89.7895 92.6075 89.8168 92.3631 89.7576C91.8132 89.6242 90.8145 88.4966 90.12 87.27C89.8783 86.8443 89.5088 86.3228 89.3095 86.1665C89.1152 85.9898 89.6208 87.1058 90.4293 88.6624C91.2378 90.2189 92.5612 92.7642 93.3697 94.3208C97.4071 102.124 100.414 106.352 104.131 109.52C105.404 110.585 107.896 112.312 108.344 112.421C108.486 112.455 108.924 111.806 109.385 110.881C110.027 109.568 110.156 109.124 110.131 108.341C110.101 106.951 110.567 106.632 112.488 106.623C113.352 106.617 114.312 106.482 114.661 106.286C115.203 106.007 115.294 105.9 115.239 105.325C115.19 104.816 114.959 104.523 114.081 103.878C112.671 102.845 112.343 102.42 112.737 102.127C112.899 101.993 113.316 101.965 113.641 102.044C114.415 102.231 114.631 101.873 114.32 100.848C114.054 99.9843 113.62 99.5549 113.061 99.6354C112.634 99.7048 112.351 99.0961 112.391 98.2203L112.406 97.5331L109.881 96.9208C107.05 96.2344 106.693 96.0182 103.886 93.545C101.795 91.6774 99.9458 89.6094 96.5364 85.2626C94.8752 83.1321 92.9019 80.6884 92.1795 79.8438C91.0013 78.4783 90.802 78.322 90.381 78.4575C89.9804 78.5979 89.7916 78.4873 88.9878 77.6229C88.4961 77.0718 87.4141 75.6649 86.5981 74.4952L85.135 72.348L86.9696 76.0754Z" fill="#2D2D2D"/>
<path d="M172.544 94.7738C167.766 94.0256 162.984 94.0969 159.188 94.9905C157.929 95.29 156.34 95.5309 155.633 95.5107C153.996 95.5025 151.5 96.1065 149.645 96.9093C148.824 97.2717 146.463 98.4701 144.387 99.5647C140.279 101.743 138.52 102.505 136.708 102.864L135.526 103.117L135.982 103.725L136.438 104.332L135.835 104.596C135.035 104.964 134.323 104.964 133.899 104.58C133.597 104.313 133.394 104.35 132.66 104.798C132.174 105.112 131.764 105.38 131.749 105.441C131.739 105.482 131.959 105.643 132.265 105.804L132.78 106.08L132.198 106.349C131.883 106.489 131.696 106.638 131.798 106.662C131.88 106.682 132.209 106.568 132.513 106.382C133.111 106.052 133.503 106.212 133.374 106.742C133.241 107.293 130.37 108.907 129.779 108.764C129.209 108.626 128.248 109.3 127.442 110.4C126.933 111.076 125.855 111.7 125.386 111.586C124.897 111.468 124.93 110.979 125.452 110.782C125.949 110.6 125.949 110.6 125.384 109.815C125.097 109.4 124.921 108.968 125.007 108.881C125.093 108.794 125.561 108.821 126.029 108.935C126.62 109.078 127.123 109.049 127.492 108.858L128.08 108.568L127.476 108.659C126.978 108.755 126.698 108.665 126.055 108.207C124.998 107.497 124.545 107.409 123.744 107.776C122.751 108.226 120.138 110.465 118.241 112.51C116.202 114.693 115.041 115.837 113.979 116.659C113.448 117.071 112.964 117.731 112.473 118.691C111.726 120.259 111.428 120.511 110.512 120.375C110.013 120.298 109.775 120.478 108.893 121.538C107.204 123.612 105.807 125.994 105.36 127.57C105.107 128.524 104.616 129.571 103.872 130.773C102.997 132.159 102.291 133.737 100.748 137.79C97.3904 146.478 97.1513 147.197 95.9649 152.179C94.6839 157.461 94.4628 159.351 94.7415 163.004C94.8151 164.123 94.8326 165.207 94.7732 165.452C94.7188 165.676 94.7479 166.979 94.8332 168.317C94.9815 170.729 94.7654 172.598 94.235 173.096C94.0634 173.27 93.9179 172.803 93.7419 171.573C93.588 170.607 93.439 169.62 93.412 169.376C93.3491 169.102 93.2398 169.464 93.1283 170.279C93.0114 171.028 92.9931 172.082 93.0731 172.641C93.1734 173.206 93.6087 175.946 94.034 178.727C95.4633 187.949 96.5659 191.672 99.1403 195.816C100.959 198.719 103.089 200.963 106.762 203.776C107.293 204.164 108.026 204.968 108.416 205.581C110.799 209.182 117.836 214.041 124.67 216.8C126.867 217.7 133.753 219.801 134.083 219.687C134.271 219.624 134.204 219.544 133.919 219.474C133.573 219.39 133.48 219.238 133.564 218.892C133.772 218.035 134.932 218.143 140.644 219.485C144.457 220.388 146.645 220.789 149.311 221.09C151.284 221.31 153.655 221.669 154.613 221.901C158.543 222.854 161.658 222.81 170.516 221.762C173.604 221.387 176.281 221.108 176.464 221.152C176.932 221.266 180.413 220.339 182.715 219.472C194.823 214.979 204.388 207.278 210.622 197.041C213.814 191.79 216.91 182.844 217.966 175.823C218.847 170.054 218.742 164.263 217.67 158.28C215.453 145.994 207.989 132.847 199.024 125.447C190.743 118.601 180.986 115.004 170.922 115.069C164.96 115.114 159.88 116.322 153.698 119.229C142.531 124.468 133.764 132.968 128.984 143.168C126.594 148.311 124.922 156.004 125.026 161.623C125.061 163.704 125.285 165.357 125.967 168.416C127.638 175.84 131.663 182.538 137.265 187.179C139.473 189.011 144.623 192.138 147.222 193.244C151.601 195.104 157.566 196.205 165.412 196.661C167.329 196.758 168.941 196.869 169.042 196.893C169.409 196.982 172.86 195.379 174.773 194.244C178.59 191.931 182.086 188.718 185.366 184.439C186.661 182.744 187.038 182.08 188.569 178.521C190.576 173.889 191.51 170.66 191.42 168.63C191.375 167.841 191.564 166.613 191.935 165.084C192.538 162.509 192.603 160.106 192.201 155.452C191.944 152.776 191.479 151.584 189.398 148.336C186.676 144.091 183.178 140.997 178.532 138.726L176.967 137.98L172.649 137.645C170.254 137.475 167.362 137.4 166.198 137.485C162.555 137.746 160.002 139.027 158.371 141.396L157.672 142.414L156.621 149.502C156.063 153.405 155.549 157.125 155.523 157.766C155.259 161.524 157.552 165.493 161.916 168.84C162.641 169.405 163.346 169.878 163.453 169.882C164.48 170.002 166.9 169.984 167.168 169.854C167.34 169.767 167.542 169.47 167.601 169.225C167.705 168.797 167.613 168.731 166.166 168.294C163.854 167.604 160.417 165.151 159.159 163.312C156.844 159.879 156.663 157.157 158.13 147.816L158.574 145.008L159.764 144.368C163.177 142.562 168.533 142.349 174.602 143.82L176.924 144.383L178.703 145.937C180.569 147.578 182.093 149.653 182.427 151.03C182.61 151.787 182.475 158.838 182.17 163.472C182.044 165.773 181.823 166.951 180.982 170.418C179.894 174.905 179.304 176.36 177.551 178.7C174.558 182.682 171.185 185.125 167.297 186.039C164.643 186.67 162.5 186.884 159.409 186.826C157.477 186.789 156.653 186.633 152.824 185.704C149.667 184.939 147.941 184.412 146.595 183.827C140.59 181.205 135.978 177.192 133.623 172.497C132.562 170.382 131.342 166.523 130.845 163.681C129.559 156.092 131.801 146.399 136.634 138.652C139.907 133.421 144.115 129.409 150.442 125.458C159.122 120.069 167.426 118.282 176.779 119.815C179.827 120.317 187.013 123.139 190.248 125.09C198.996 130.364 205.875 140.497 208.452 151.834C209.856 158.048 209.773 161.505 208.032 168.771C205.886 177.623 202.368 185.106 197.103 191.971C194.049 195.938 191.656 198.425 186.931 202.527C181.443 207.286 177.577 209.091 168.214 211.248C164.966 212.015 163.646 212.213 163.076 212.075C161.833 211.774 159.349 211.884 155.662 212.415L152.265 212.909L149.536 212.334C147.139 211.817 146.442 211.756 143.362 211.83C139.439 211.915 139.831 211.989 128.711 209.12C122.865 207.616 122.804 207.601 121.436 206.665C120.675 206.156 119.639 205.538 119.134 205.307C117.732 204.687 117.225 204.11 116.481 202.289C115.747 200.513 114.86 199.369 114.43 199.632C113.924 199.941 113.107 199.484 111.976 198.281C111.321 197.604 110.538 196.917 110.192 196.747C109.514 196.431 107.838 193.649 106.953 191.34C106.643 190.574 105.992 188.99 105.476 187.829C103.963 184.374 102.975 179.556 103.017 175.916C103.043 174.476 102.846 171.729 102.695 171.109C102.627 170.855 102.396 170.561 102.212 170.43C101.891 170.244 101.89 170.071 102.219 169.158C102.583 168.101 102.6 167.587 102.335 165.212C102.233 164.388 102.103 164.033 101.88 164.065C101.413 164.125 101.211 162.91 101.493 161.747C101.627 161.197 101.674 160.646 101.567 160.556C101.27 160.268 101.466 159.991 101.894 160.095C102.24 160.179 102.336 160.051 102.519 159.296C102.642 158.787 102.649 158.227 102.541 158.049C101.842 156.93 102.192 155.222 103.647 152.422C104.204 151.369 104.759 150.057 104.898 149.486C105.303 147.813 106.536 145.132 108.374 141.906C109.801 139.402 110.227 138.447 110.838 136.457C111.674 133.723 112.162 132.956 113.036 132.995C113.525 133.027 114.172 132.493 116.883 129.846C119.312 127.476 120.135 126.574 120.112 126.223C120.049 125.236 120.495 124.2 121.534 123.027C122.124 122.371 122.563 121.807 122.532 121.757C122.393 121.529 120.34 123.147 120.232 123.596C120.143 123.963 120.036 124.045 119.771 123.895C119.424 123.724 119.237 123.873 118.416 125.035C117.953 125.7 116.481 126.703 116.114 126.615C115.707 126.516 115.979 126.107 118.218 123.453C121.314 119.755 124.415 116.836 128.598 113.725C131.258 111.736 137.586 107.958 141.031 106.288C143.326 105.182 143.656 105.067 144.247 105.297C145.562 105.832 149.549 105.308 150.082 104.531C150.415 104.05 151.166 103.886 152.783 103.976C153.423 104.002 154.079 103.966 154.276 103.863C154.545 103.734 154.616 103.794 154.614 104.161C154.637 104.599 154.657 104.603 155.612 104.489C156.521 104.386 156.597 104.34 156.618 103.718C156.715 102.252 159.401 100.959 162.466 100.947C163.045 100.958 164.05 100.813 164.69 100.665C168.029 99.877 172.97 99.8656 177.326 100.663C182.817 101.67 187.658 103.492 194.912 107.281C197.952 108.882 204.89 112.637 205.39 112.975C206.784 113.896 201.949 109.203 198.585 106.358C194.179 102.655 190.044 100.054 185.518 98.1789C183.362 97.289 175.602 95.2345 172.544 94.7738Z" fill="#2D2D2D"/>
<path d="M87.2329 82.7259C87.223 82.7667 87.5733 83.4563 88.0309 84.2368C88.5404 85.1593 88.9247 85.6196 89.0407 85.4966C89.1519 85.394 89.35 85.3772 89.4981 85.4779C90.0497 85.8708 89.7518 85.4099 88.5229 84.0753C87.8264 83.3017 87.2379 82.7055 87.2329 82.7259Z" fill="#2D2D2D"/>
<path d="M130.061 106.176C130.022 106.34 130.099 106.466 130.251 106.46C130.648 106.427 130.803 106.054 130.436 105.965C130.273 105.925 130.096 106.034 130.061 106.176Z" fill="#2D2D2D"/>
<path d="M272.583 153.325C271.387 153.1 270.298 152.966 270.156 153.018C269.669 153.159 263.984 152.774 260.428 152.322C258.48 152.087 253.065 151.206 248.394 150.375C236.878 148.339 236.898 148.344 234.98 148.786C232.488 149.369 229.375 149.759 227.219 149.754C225.298 149.764 225.252 149.774 225.038 150.392C224.788 151.065 224.86 151.126 226.567 151.734C227.02 151.909 227.602 152.266 227.843 152.519L228.273 152.969L227.438 153.565C226.973 153.884 226.261 154.597 225.827 155.14L225.051 156.118L225.395 156.568C225.574 156.806 226.258 157.274 226.916 157.585C227.997 158.106 228.41 158.185 230.993 158.379C238.341 158.93 244.479 158.518 258.591 156.519C266.162 155.44 270.992 154.818 273.41 154.627C274.228 154.545 274.903 154.428 274.918 154.367C275.011 153.892 274.583 153.702 272.583 153.325Z" fill="#2D2D2D"/>
<path d="M39.1653 107.114C48.4941 114.17 52.1042 116.622 56.9301 119.217L59.7969 120.733L57.887 120.162C56.8379 119.865 55.1112 119.338 54.0721 119C52.8292 118.612 52.2337 118.489 52.3262 118.641C52.5421 118.996 56.2028 121.417 58.2692 122.587C61.8357 124.597 65.6448 126.406 70.3691 128.264C72.8307 129.228 74.3024 129.649 81.3894 131.368C85.8697 132.454 90.9553 133.623 92.6654 133.951L95.7498 134.569L95.563 134.006C95.3559 133.437 95.3861 133.401 96.5201 132.726C97.1733 132.345 97.7295 131.918 97.7641 131.775C97.8878 131.265 96.9391 130.02 95.4411 128.728C94.623 128.012 93.9271 127.325 93.8753 127.183C93.72 126.756 94.0537 125.736 94.4927 125.259C95.0379 124.7 95.0818 124.43 94.7888 123.949C94.4496 123.391 94.1139 123.353 93.7613 123.829C93.4791 124.193 93.2557 124.225 91.9325 123.99C90.5687 123.746 90.3453 123.778 89.8143 124.189L89.2074 124.647L84.6161 123.663C81.1546 122.91 78.4862 122.177 73.7389 120.68C70.2955 119.586 66.0431 118.361 64.3324 117.946C61.4814 117.254 60.9056 117.05 57.5859 115.446C48.0758 110.916 38.1578 106.2 38.0357 106.17C37.9542 106.151 38.4755 106.579 39.1653 107.114Z" fill="#2D2D2D"/>
<path d="M223.793 182.203C221.327 182.771 221.357 182.735 222.842 185.147C226.013 190.299 230.467 193.626 238.03 196.496C240.241 197.335 242.472 197.918 252.46 200.297C265.565 203.432 267.312 203.963 269.609 205.514C270.467 206.067 271.192 206.545 271.274 206.565C271.335 206.58 271.164 206.215 270.892 205.738C270.527 205.11 270.432 204.698 270.556 204.189C270.69 203.638 270.581 203.374 270.017 202.676C266.84 198.882 262.425 196.105 255.751 193.753C254.681 193.364 251.395 192.329 248.466 191.425C239.11 188.573 237.775 188.033 233.533 185.428C230.292 183.411 228.711 182.639 226.858 182.19C225.595 181.884 225.184 181.892 223.793 182.203Z" fill="#2D2D2D"/>
<path d="M94.0816 154.076C94.0271 154.3 94.0696 154.57 94.1566 154.656C94.259 154.767 94.385 154.603 94.4542 154.318C94.5235 154.032 94.5014 153.768 94.3792 153.738C94.2773 153.713 94.131 153.872 94.0816 154.076Z" fill="#2D2D2D"/>
<path d="M86.0341 159.165C85.4816 159.398 83.8425 159.044 81.7734 158.24C80.1018 157.575 78.8915 157.498 78.168 157.992C77.9353 158.151 77.3717 158.252 76.9447 158.235C75.7394 158.137 73.7401 158.646 70.0489 159.997C68.1983 160.693 66.3873 161.225 66.0416 161.228C65.6146 161.211 65.3664 161.345 65.3071 161.59C65.1191 162.365 63.5112 162.86 58.8907 163.597C57.5452 163.811 55.7484 164.196 54.9114 164.446C52.3041 165.239 51.0401 165.473 49.9922 165.348C49.2596 165.257 49.1016 165.197 49.3652 165.088C49.6492 164.984 49.5011 164.883 48.7883 164.711C47.709 164.449 46.9942 164.729 47.521 165.224C47.9967 165.663 47.5405 165.855 46.3247 165.711C45.0633 165.578 44.5763 165.719 44.0317 166.365C43.7544 166.708 43.4551 166.786 42.8749 166.689C42.4578 166.631 42.0868 166.649 42.067 166.731C42.0423 166.833 41.4276 166.878 40.6802 166.848L39.3533 166.807L40.2252 167.213C41.6883 167.848 41.7296 167.944 40.837 168.246C40.3957 168.377 38.276 169.115 36.131 169.869C33.991 170.603 31.6225 171.389 30.8868 171.578C30.1307 171.762 29.456 171.965 29.3751 172.032C29.0411 172.254 33.5691 172.876 36.0298 172.955C38.6836 173.037 42.9826 173.626 42.9133 173.911C42.8787 174.054 39.1057 174.586 36.7332 174.767C35.8593 174.814 35.1686 174.905 35.1995 174.956C35.2303 175.007 37.0102 175.136 39.1406 175.242C41.276 175.328 43.8847 175.507 44.9277 175.652C49.3891 176.194 53.842 176.237 59.1709 175.78C63.245 175.429 69.3189 174.656 70.9225 174.267C72.5921 173.873 74.685 173.69 77.6889 173.662C81.5518 173.649 83.5836 173.45 85.1403 172.899C86.9304 172.275 87.178 172.054 87.8445 170.639C88.3257 169.633 88.3801 169.409 88.1834 168.886C87.9966 168.322 88.0065 168.281 88.6652 167.966C89.3084 167.625 89.3436 167.569 89.3372 166.617C89.3206 164.907 89.1222 164.125 88.6742 164.016C88.4502 163.962 88.186 163.984 88.0953 164.092C87.8125 164.369 87.1195 164.114 87.0709 163.692C87.0279 163.336 87.9335 162.714 88.5735 162.653C89.1019 162.608 88.7045 160.957 87.9204 160.011C87.1413 159.045 86.7334 158.859 86.0341 159.165Z" fill="#2D2D2D"/>
<path d="M207.317 213.516C205.883 213.471 205.654 213.524 205.931 213.807C206.381 214.262 205.778 214.439 204.698 214.177C203.884 213.98 203.513 213.998 203.153 214.235C202.713 214.538 202.703 214.579 203.254 215.598C204.067 217.134 206.136 220.163 207.535 221.862C210.651 225.641 214.134 228.883 221.192 234.546C223.916 236.74 227.064 239.318 228.194 240.261C229.298 241.22 230.284 241.956 230.36 241.909C230.563 241.786 230.008 238.649 229.498 236.928C228.012 232.032 224.788 226.651 222.039 224.472C221.375 223.922 219.528 222.114 217.951 220.436C214.899 217.191 213.759 216.115 212.115 215.069C210.88 214.294 208.643 213.558 207.317 213.516Z" fill="#2D2D2D"/>
<path d="M93.7386 196.04C93.3793 196.277 93.036 196.625 92.9865 196.829C92.9371 197.033 92.0919 197.584 91.0178 198.101C78.6756 204.006 66.0046 212.422 50.6114 224.951C47.3609 227.597 47.0831 227.853 47.3699 228.182C47.6519 228.531 47.642 228.572 47.0246 228.984C46.6703 229.2 45.4042 229.887 44.1831 230.476C41.9541 231.577 39.9903 232.828 40.8884 232.593C41.1217 232.52 43.7482 231.558 46.7346 230.447C50.537 228.993 52.0992 228.508 52.0399 228.753C51.9311 229.202 50.4567 230.658 49.2726 231.451C48.7565 231.801 49.1213 231.63 50.0732 231.084C52.6252 229.629 56.0506 228.041 56.6351 228.032C57.9311 228.022 57.6792 228.35 54.8604 230.193C53.2714 231.233 52.1027 232.051 52.2348 232.04C52.6107 232.001 61.0376 227.393 66.6176 224.211C69.2252 222.705 76.1917 218.607 82.0643 215.107C87.9369 211.607 93.6885 208.251 94.8281 207.642C97.3097 206.3 97.44 206.029 96.6929 203.775C96.0956 201.881 96.0965 201.255 96.7467 200.44C97.2407 199.826 97.2457 199.806 96.8154 198.557C96.297 197.049 95.5167 195.909 94.8854 195.756C94.6206 195.692 94.1133 195.828 93.7386 196.04Z" fill="#2D2D2D"/>
<path d="M100.568 200.244C100.523 200.428 102.68 202.916 103.503 203.612C104.326 204.308 106.021 205.41 106.148 205.333C106.193 205.323 105.675 204.614 105.014 203.784C104.05 202.6 103.662 202.247 103.071 202.104C102.542 201.975 102.158 201.688 101.717 201.106C101.179 200.392 100.632 199.979 100.568 200.244Z" fill="#2D2D2D"/>
<path d="M168.721 229.965C167.15 229.864 165.24 230.092 164.028 230.555C163.278 230.804 163.278 230.804 163.546 231.388C163.856 232.068 163.787 232.526 163.366 232.575C163.122 232.602 163.14 233.06 163.416 234.682C163.897 237.412 164.451 242.06 165.035 247.924C166.236 260.309 167.156 265.585 169.091 271.389L169.687 273.11L170.53 269.902C172.403 262.798 173.406 253.949 173.467 244.095C173.471 240.878 173.471 240.878 174.06 240.135C174.373 239.736 174.694 239.123 174.793 238.801C174.878 238.455 175.152 237.765 175.363 237.255C175.728 236.372 175.722 236.305 175.242 235.973C174.982 235.802 174.671 235.662 174.554 235.698C174.437 235.735 174.463 235.007 174.599 234.09L174.857 232.403L174.198 231.833C173.554 231.288 171.488 230.29 170.623 230.124C170.399 230.069 169.55 230.015 168.721 229.965Z" fill="#2D2D2D"/>
<path d="M122.815 222.138C122.085 222.393 121.396 222.657 121.294 222.719C121.193 222.781 121.186 223.254 121.281 223.753L121.45 224.657L119.514 227.039C113.808 234.12 106.357 244.753 99.3453 255.794C86.8369 275.545 83.8959 280.382 84.0013 280.925C84.0961 281.424 84.1726 281.464 84.609 281.354C85.6898 281.076 87.9011 279.604 89.8262 277.889C91.4024 276.457 92.3657 275.33 94.6424 272.254C108.861 252.919 115.245 245.267 123.933 237.094C125.776 235.36 126.166 235.087 126.614 235.196C127.306 235.363 127.625 235.117 128.308 233.9C128.67 233.297 129.069 232.897 129.388 232.823C129.667 232.74 129.941 232.677 129.992 232.646C130.043 232.615 129.76 232.093 129.339 231.516C128.713 230.63 128.614 230.325 128.795 229.937C129.035 229.39 128.579 228.07 127.266 225.657C126.613 224.441 124.576 221.723 124.281 221.694C124.22 221.679 123.546 221.883 122.815 222.138Z" fill="#2D2D2D"/>
</g>
<defs>
<clipPath id="clip0_75_99">
<rect width="251.04" height="268.641" fill="white" transform="translate(63.3054) rotate(13.63)"/>
</clipPath>
</defs>
</svg>
